<mxfile host="app.diagrams.net" agent="Mozilla/5.0 (X11; Linux x86_64) AppleWebKit/537.36 (KHTML, like Gecko) Chrome/131.0.0.0 Safari/537.36" version="26.0.10">
  <diagram name="Page-1" id="Rgjj89eCdvNnS10fGYwV">
    <mxGraphModel dx="3079" dy="1870" grid="1" gridSize="10" guides="1" tooltips="1" connect="1" arrows="1" fold="1" page="1" pageScale="1" pageWidth="850" pageHeight="1100" math="0" shadow="0" adaptiveColors="simple">
      <root>
        <mxCell id="0" />
        <mxCell id="1" parent="0" />
        <mxCell id="LlokaoBQDyI7vfWsaAnD-50" value="" style="group" parent="1" vertex="1" connectable="0">
          <mxGeometry x="-1510" y="520" width="1180" height="270" as="geometry" />
        </mxCell>
        <mxCell id="LlokaoBQDyI7vfWsaAnD-48" value="" style="rounded=0;whiteSpace=wrap;html=1;movable=1;resizable=1;rotatable=1;deletable=1;editable=1;locked=0;connectable=1;" parent="LlokaoBQDyI7vfWsaAnD-50" vertex="1">
          <mxGeometry width="1180" height="270" as="geometry" />
        </mxCell>
        <mxCell id="LlokaoBQDyI7vfWsaAnD-49" value="PVE Cluster" style="text;html=1;align=center;verticalAlign=middle;whiteSpace=wrap;rounded=0;movable=1;resizable=1;rotatable=1;deletable=1;editable=1;locked=0;connectable=1;" parent="LlokaoBQDyI7vfWsaAnD-50" vertex="1">
          <mxGeometry x="10" y="10" width="60" height="30" as="geometry" />
        </mxCell>
        <mxCell id="PbtLvo4gmNFbYHyGWxIX-13" style="rounded=0;orthogonalLoop=1;jettySize=auto;html=1;exitX=0;exitY=0.5;exitDx=0;exitDy=0;exitPerimeter=0;endArrow=none;endFill=0;" parent="1" source="LlokaoBQDyI7vfWsaAnD-42" target="PbtLvo4gmNFbYHyGWxIX-12" edge="1">
          <mxGeometry relative="1" as="geometry" />
        </mxCell>
        <mxCell id="LlokaoBQDyI7vfWsaAnD-42" value="cat9300 - Vtep Leaf 1" style="sketch=0;points=[[0.015,0.015,0],[0.985,0.015,0],[0.985,0.985,0],[0.015,0.985,0],[0.25,0,0],[0.5,0,0],[0.75,0,0],[1,0.25,0],[1,0.5,0],[1,0.75,0],[0.75,1,0],[0.5,1,0],[0.25,1,0],[0,0.75,0],[0,0.5,0],[0,0.25,0]];verticalLabelPosition=top;html=1;verticalAlign=bottom;aspect=fixed;align=center;pointerEvents=1;shape=mxgraph.cisco19.rect;prIcon=secure_catalyst_switch_color2;labelBackgroundColor=default;fontSize=17;fillColor=#ffcccc;strokeColor=#36393d;labelPosition=center;" parent="1" vertex="1">
          <mxGeometry x="-160" y="320" width="110" height="110" as="geometry" />
        </mxCell>
        <mxCell id="LlokaoBQDyI7vfWsaAnD-43" value="cat9300 - Vtep Leaf 2" style="sketch=0;points=[[0.015,0.015,0],[0.985,0.015,0],[0.985,0.985,0],[0.015,0.985,0],[0.25,0,0],[0.5,0,0],[0.75,0,0],[1,0.25,0],[1,0.5,0],[1,0.75,0],[0.75,1,0],[0.5,1,0],[0.25,1,0],[0,0.75,0],[0,0.5,0],[0,0.25,0]];verticalLabelPosition=top;html=1;verticalAlign=bottom;aspect=fixed;align=center;pointerEvents=1;shape=mxgraph.cisco19.rect;prIcon=secure_catalyst_switch_color2;labelBackgroundColor=default;fontSize=17;fillColor=#ffcccc;strokeColor=#36393d;labelPosition=center;" parent="1" vertex="1">
          <mxGeometry x="140" y="340" width="110" height="110" as="geometry" />
        </mxCell>
        <mxCell id="LlokaoBQDyI7vfWsaAnD-44" style="rounded=0;orthogonalLoop=1;jettySize=auto;html=1;exitX=0.015;exitY=0.985;exitDx=0;exitDy=0;exitPerimeter=0;entryX=0.015;entryY=0.015;entryDx=0;entryDy=0;entryPerimeter=0;endArrow=none;endFill=0;edgeStyle=orthogonalEdgeStyle;curved=1;" parent="1" source="LlokaoBQDyI7vfWsaAnD-42" target="LlokaoBQDyI7vfWsaAnD-6" edge="1">
          <mxGeometry relative="1" as="geometry" />
        </mxCell>
        <mxCell id="LlokaoBQDyI7vfWsaAnD-45" style="rounded=0;orthogonalLoop=1;jettySize=auto;html=1;exitX=0.985;exitY=0.985;exitDx=0;exitDy=0;exitPerimeter=0;entryX=0.018;entryY=0.1;entryDx=0;entryDy=0;entryPerimeter=0;endArrow=none;endFill=0;edgeStyle=orthogonalEdgeStyle;curved=1;" parent="1" source="LlokaoBQDyI7vfWsaAnD-42" target="LlokaoBQDyI7vfWsaAnD-10" edge="1">
          <mxGeometry relative="1" as="geometry" />
        </mxCell>
        <mxCell id="LlokaoBQDyI7vfWsaAnD-46" style="rounded=0;orthogonalLoop=1;jettySize=auto;html=1;exitX=0.015;exitY=0.985;exitDx=0;exitDy=0;exitPerimeter=0;entryX=0.985;entryY=0.015;entryDx=0;entryDy=0;entryPerimeter=0;endArrow=none;endFill=0;edgeStyle=orthogonalEdgeStyle;curved=1;" parent="1" source="LlokaoBQDyI7vfWsaAnD-43" target="LlokaoBQDyI7vfWsaAnD-6" edge="1">
          <mxGeometry relative="1" as="geometry" />
        </mxCell>
        <mxCell id="LlokaoBQDyI7vfWsaAnD-47" style="rounded=0;orthogonalLoop=1;jettySize=auto;html=1;exitX=0.985;exitY=0.985;exitDx=0;exitDy=0;exitPerimeter=0;entryX=0.985;entryY=0.015;entryDx=0;entryDy=0;entryPerimeter=0;endArrow=none;endFill=0;edgeStyle=orthogonalEdgeStyle;curved=1;" parent="1" source="LlokaoBQDyI7vfWsaAnD-43" target="LlokaoBQDyI7vfWsaAnD-10" edge="1">
          <mxGeometry relative="1" as="geometry" />
        </mxCell>
        <mxCell id="PbtLvo4gmNFbYHyGWxIX-12" value="greatfox" style="sketch=0;outlineConnect=0;fillColor=#ffe6cc;strokeColor=#d79b00;dashed=0;verticalLabelPosition=bottom;verticalAlign=top;align=center;html=1;fontSize=20;fontStyle=0;aspect=fixed;pointerEvents=1;shape=mxgraph.aws4.traditional_server;" parent="1" vertex="1">
          <mxGeometry x="-219.99999999999997" y="800" width="108.46" height="188" as="geometry" />
        </mxCell>
        <mxCell id="ef0nl-UPp9qs67J5QoKZ-1" value="nix-msi" style="points=[[0.13,0.02,0],[0.5,0,0],[0.87,0.02,0],[0.885,0.4,0],[0.985,0.985,0],[0.5,1,0],[0.015,0.985,0],[0.115,0.4,0]];verticalLabelPosition=bottom;sketch=0;html=1;verticalAlign=top;aspect=fixed;align=center;pointerEvents=1;shape=mxgraph.cisco19.laptop;fillColor=#005073;strokeColor=none;" vertex="1" parent="1">
          <mxGeometry x="122.86" y="770" width="144.29" height="101" as="geometry" />
        </mxCell>
        <mxCell id="ef0nl-UPp9qs67J5QoKZ-2" value="" style="endArrow=none;html=1;rounded=0;entryX=0.6;entryY=1.039;entryDx=0;entryDy=0;entryPerimeter=0;exitX=0.5;exitY=0;exitDx=0;exitDy=0;exitPerimeter=0;" edge="1" parent="1" source="ef0nl-UPp9qs67J5QoKZ-1" target="LlokaoBQDyI7vfWsaAnD-43">
          <mxGeometry width="50" height="50" relative="1" as="geometry">
            <mxPoint x="820" y="350" as="sourcePoint" />
            <mxPoint x="870" y="300" as="targetPoint" />
          </mxGeometry>
        </mxCell>
        <mxCell id="LlokaoBQDyI7vfWsaAnD-18" style="rounded=0;orthogonalLoop=1;jettySize=auto;html=1;exitX=0.076;exitY=-0.006;exitDx=0;exitDy=0;exitPerimeter=0;entryX=0.184;entryY=0.995;entryDx=0;entryDy=0;entryPerimeter=0;strokeColor=default;endArrow=none;endFill=0;edgeStyle=orthogonalEdgeStyle;curved=1;" parent="1" source="LlokaoBQDyI7vfWsaAnD-15" target="LlokaoBQDyI7vfWsaAnD-6" edge="1">
          <mxGeometry relative="1" as="geometry">
            <mxPoint x="-1314.9999999999998" y="673.45" as="sourcePoint" />
            <mxPoint x="-1195.1499999999999" y="490" as="targetPoint" />
          </mxGeometry>
        </mxCell>
        <mxCell id="LlokaoBQDyI7vfWsaAnD-21" style="rounded=0;orthogonalLoop=1;jettySize=auto;html=1;exitX=0.25;exitY=1;exitDx=0;exitDy=0;exitPerimeter=0;entryX=0.015;entryY=0.015;entryDx=0;entryDy=0;entryPerimeter=0;endArrow=none;endFill=0;edgeStyle=orthogonalEdgeStyle;curved=1;" parent="1" source="LlokaoBQDyI7vfWsaAnD-6" target="LlokaoBQDyI7vfWsaAnD-20" edge="1">
          <mxGeometry relative="1" as="geometry" />
        </mxCell>
        <mxCell id="LlokaoBQDyI7vfWsaAnD-22" style="rounded=0;orthogonalLoop=1;jettySize=auto;html=1;exitX=0.25;exitY=1;exitDx=0;exitDy=0;exitPerimeter=0;entryX=0.195;entryY=0.034;entryDx=0;entryDy=0;entryPerimeter=0;endArrow=none;endFill=0;edgeStyle=orthogonalEdgeStyle;curved=1;" parent="1" source="LlokaoBQDyI7vfWsaAnD-10" target="LlokaoBQDyI7vfWsaAnD-20" edge="1">
          <mxGeometry relative="1" as="geometry" />
        </mxCell>
        <mxCell id="LlokaoBQDyI7vfWsaAnD-24" style="rounded=0;orthogonalLoop=1;jettySize=auto;html=1;exitX=0.5;exitY=1;exitDx=0;exitDy=0;exitPerimeter=0;entryX=0.015;entryY=0.015;entryDx=0;entryDy=0;entryPerimeter=0;endArrow=none;endFill=0;edgeStyle=orthogonalEdgeStyle;curved=1;" parent="1" source="LlokaoBQDyI7vfWsaAnD-6" target="LlokaoBQDyI7vfWsaAnD-23" edge="1">
          <mxGeometry relative="1" as="geometry">
            <mxPoint x="-1017" y="480" as="sourcePoint" />
          </mxGeometry>
        </mxCell>
        <mxCell id="LlokaoBQDyI7vfWsaAnD-27" style="rounded=0;orthogonalLoop=1;jettySize=auto;html=1;entryX=0.015;entryY=0.015;entryDx=0;entryDy=0;entryPerimeter=0;endArrow=none;endFill=0;exitX=0.793;exitY=0.998;exitDx=0;exitDy=0;exitPerimeter=0;edgeStyle=orthogonalEdgeStyle;curved=1;" parent="1" source="LlokaoBQDyI7vfWsaAnD-6" target="LlokaoBQDyI7vfWsaAnD-26" edge="1">
          <mxGeometry relative="1" as="geometry">
            <mxPoint x="-1105" y="480" as="sourcePoint" />
          </mxGeometry>
        </mxCell>
        <mxCell id="LlokaoBQDyI7vfWsaAnD-28" style="rounded=0;orthogonalLoop=1;jettySize=auto;html=1;exitX=0.632;exitY=1.004;exitDx=0;exitDy=0;exitPerimeter=0;entryX=0.195;entryY=0.034;entryDx=0;entryDy=0;entryPerimeter=0;endArrow=none;endFill=0;edgeStyle=orthogonalEdgeStyle;curved=1;" parent="1" source="LlokaoBQDyI7vfWsaAnD-10" target="LlokaoBQDyI7vfWsaAnD-26" edge="1">
          <mxGeometry relative="1" as="geometry">
            <mxPoint x="-637" y="480" as="sourcePoint" />
          </mxGeometry>
        </mxCell>
        <mxCell id="LlokaoBQDyI7vfWsaAnD-29" style="edgeStyle=orthogonalEdgeStyle;rounded=0;orthogonalLoop=1;jettySize=auto;html=1;exitX=0.25;exitY=0;exitDx=0;exitDy=0;exitPerimeter=0;entryX=0.182;entryY=1;entryDx=0;entryDy=0;entryPerimeter=0;endArrow=none;endFill=0;curved=1;" parent="1" source="LlokaoBQDyI7vfWsaAnD-15" target="LlokaoBQDyI7vfWsaAnD-10" edge="1">
          <mxGeometry relative="1" as="geometry" />
        </mxCell>
        <mxCell id="LlokaoBQDyI7vfWsaAnD-30" style="edgeStyle=orthogonalEdgeStyle;rounded=0;orthogonalLoop=1;jettySize=auto;html=1;exitX=0.25;exitY=0;exitDx=0;exitDy=0;exitPerimeter=0;entryX=0.403;entryY=1.006;entryDx=0;entryDy=0;entryPerimeter=0;curved=1;endArrow=none;endFill=0;" parent="1" source="LlokaoBQDyI7vfWsaAnD-23" target="LlokaoBQDyI7vfWsaAnD-10" edge="1">
          <mxGeometry relative="1" as="geometry" />
        </mxCell>
        <mxCell id="LlokaoBQDyI7vfWsaAnD-34" style="rounded=0;orthogonalLoop=1;jettySize=auto;html=1;entryX=0.015;entryY=0.015;entryDx=0;entryDy=0;entryPerimeter=0;endArrow=none;endFill=0;exitX=0.909;exitY=1;exitDx=0;exitDy=0;exitPerimeter=0;edgeStyle=orthogonalEdgeStyle;curved=1;" parent="1" source="LlokaoBQDyI7vfWsaAnD-6" target="LlokaoBQDyI7vfWsaAnD-33" edge="1">
          <mxGeometry relative="1" as="geometry">
            <mxPoint x="-1008" y="400" as="sourcePoint" />
          </mxGeometry>
        </mxCell>
        <mxCell id="LlokaoBQDyI7vfWsaAnD-35" style="rounded=0;orthogonalLoop=1;jettySize=auto;html=1;exitX=0.75;exitY=1;exitDx=0;exitDy=0;exitPerimeter=0;entryX=0.195;entryY=0.034;entryDx=0;entryDy=0;entryPerimeter=0;endArrow=none;endFill=0;edgeStyle=orthogonalEdgeStyle;curved=1;" parent="1" source="LlokaoBQDyI7vfWsaAnD-10" target="LlokaoBQDyI7vfWsaAnD-33" edge="1">
          <mxGeometry relative="1" as="geometry">
            <mxPoint x="-636" y="403" as="sourcePoint" />
          </mxGeometry>
        </mxCell>
        <mxCell id="LlokaoBQDyI7vfWsaAnD-37" style="rounded=0;orthogonalLoop=1;jettySize=auto;html=1;entryX=0.015;entryY=0.015;entryDx=0;entryDy=0;entryPerimeter=0;endArrow=none;endFill=0;edgeStyle=orthogonalEdgeStyle;curved=1;exitX=0.091;exitY=1;exitDx=0;exitDy=0;exitPerimeter=0;" parent="1" source="LlokaoBQDyI7vfWsaAnD-6" target="LlokaoBQDyI7vfWsaAnD-36" edge="1">
          <mxGeometry relative="1" as="geometry">
            <mxPoint x="-1225" y="410" as="sourcePoint" />
          </mxGeometry>
        </mxCell>
        <mxCell id="LlokaoBQDyI7vfWsaAnD-38" style="rounded=0;orthogonalLoop=1;jettySize=auto;html=1;exitX=0.091;exitY=1;exitDx=0;exitDy=0;exitPerimeter=0;entryX=0.195;entryY=0.034;entryDx=0;entryDy=0;entryPerimeter=0;endArrow=none;endFill=0;edgeStyle=orthogonalEdgeStyle;curved=1;" parent="1" source="LlokaoBQDyI7vfWsaAnD-10" target="LlokaoBQDyI7vfWsaAnD-36" edge="1">
          <mxGeometry relative="1" as="geometry">
            <mxPoint x="-1403" y="403" as="sourcePoint" />
          </mxGeometry>
        </mxCell>
        <mxCell id="LlokaoBQDyI7vfWsaAnD-6" value="cat9300 - Spine 1" style="sketch=0;points=[[0.015,0.015,0],[0.985,0.015,0],[0.985,0.985,0],[0.015,0.985,0],[0.25,0,0],[0.5,0,0],[0.75,0,0],[1,0.25,0],[1,0.5,0],[1,0.75,0],[0.75,1,0],[0.5,1,0],[0.25,1,0],[0,0.75,0],[0,0.5,0],[0,0.25,0]];verticalLabelPosition=top;html=1;verticalAlign=bottom;aspect=fixed;align=center;pointerEvents=1;shape=mxgraph.cisco19.rect;prIcon=secure_catalyst_switch_color2;labelBackgroundColor=default;fontSize=17;fillColor=#b1ddf0;strokeColor=#10739e;labelPosition=center;" parent="1" vertex="1">
          <mxGeometry x="-1235" y="290" width="110" height="110" as="geometry" />
        </mxCell>
        <mxCell id="LlokaoBQDyI7vfWsaAnD-10" value="cat9300 - Spine 2" style="sketch=0;points=[[0.015,0.015,0],[0.985,0.015,0],[0.985,0.985,0],[0.015,0.985,0],[0.25,0,0],[0.5,0,0],[0.75,0,0],[1,0.25,0],[1,0.5,0],[1,0.75,0],[0.75,1,0],[0.5,1,0],[0.25,1,0],[0,0.75,0],[0,0.5,0],[0,0.25,0]];verticalLabelPosition=top;html=1;verticalAlign=bottom;aspect=fixed;align=center;pointerEvents=1;shape=mxgraph.cisco19.rect;prIcon=secure_catalyst_switch_color2;labelBackgroundColor=default;fontSize=17;fillColor=#b1ddf0;strokeColor=#10739e;labelPosition=center;" parent="1" vertex="1">
          <mxGeometry x="-845" y="290" width="110" height="110" as="geometry" />
        </mxCell>
        <mxCell id="LlokaoBQDyI7vfWsaAnD-15" value="VyOS Vtep 11" style="sketch=0;points=[[0.015,0.015,0],[0.985,0.015,0],[0.985,0.985,0],[0.015,0.985,0],[0.25,0,0],[0.5,0,0],[0.75,0,0],[1,0.25,0],[1,0.5,0],[1,0.75,0],[0.75,1,0],[0.5,1,0],[0.25,1,0],[0,0.75,0],[0,0.5,0],[0,0.25,0]];verticalLabelPosition=bottom;html=1;verticalAlign=top;aspect=fixed;align=center;pointerEvents=1;shape=mxgraph.cisco19.rect;prIcon=l3_switch;fillColor=#d0cee2;strokeColor=#56517e;fontSize=16;labelBackgroundColor=default;" parent="1" vertex="1">
          <mxGeometry x="-1235" y="570" width="120" height="120" as="geometry" />
        </mxCell>
        <mxCell id="LlokaoBQDyI7vfWsaAnD-20" value="VyOS Vtep 12" style="sketch=0;points=[[0.015,0.015,0],[0.985,0.015,0],[0.985,0.985,0],[0.015,0.985,0],[0.25,0,0],[0.5,0,0],[0.75,0,0],[1,0.25,0],[1,0.5,0],[1,0.75,0],[0.75,1,0],[0.5,1,0],[0.25,1,0],[0,0.75,0],[0,0.5,0],[0,0.25,0]];verticalLabelPosition=bottom;html=1;verticalAlign=top;aspect=fixed;align=center;pointerEvents=1;shape=mxgraph.cisco19.rect;prIcon=l3_switch;fillColor=#d0cee2;strokeColor=#56517e;fontSize=16;labelBackgroundColor=default;" parent="1" vertex="1">
          <mxGeometry x="-1085" y="570" width="120" height="120" as="geometry" />
        </mxCell>
        <mxCell id="LlokaoBQDyI7vfWsaAnD-23" value="VyOS Vtep 13" style="sketch=0;points=[[0.015,0.015,0],[0.985,0.015,0],[0.985,0.985,0],[0.015,0.985,0],[0.25,0,0],[0.5,0,0],[0.75,0,0],[1,0.25,0],[1,0.5,0],[1,0.75,0],[0.75,1,0],[0.5,1,0],[0.25,1,0],[0,0.75,0],[0,0.5,0],[0,0.25,0]];verticalLabelPosition=bottom;html=1;verticalAlign=top;aspect=fixed;align=center;pointerEvents=1;shape=mxgraph.cisco19.rect;prIcon=l3_switch;fillColor=#d0cee2;strokeColor=#56517e;fontSize=16;labelBackgroundColor=default;" parent="1" vertex="1">
          <mxGeometry x="-935" y="570" width="120" height="120" as="geometry" />
        </mxCell>
        <mxCell id="LlokaoBQDyI7vfWsaAnD-26" value="VyOS Vtep 14" style="sketch=0;points=[[0.015,0.015,0],[0.985,0.015,0],[0.985,0.985,0],[0.015,0.985,0],[0.25,0,0],[0.5,0,0],[0.75,0,0],[1,0.25,0],[1,0.5,0],[1,0.75,0],[0.75,1,0],[0.5,1,0],[0.25,1,0],[0,0.75,0],[0,0.5,0],[0,0.25,0]];verticalLabelPosition=bottom;html=1;verticalAlign=top;aspect=fixed;align=center;pointerEvents=1;shape=mxgraph.cisco19.rect;prIcon=l3_switch;fillColor=#d0cee2;strokeColor=#56517e;fontSize=16;labelBackgroundColor=default;" parent="1" vertex="1">
          <mxGeometry x="-755" y="570" width="120" height="120" as="geometry" />
        </mxCell>
        <mxCell id="LlokaoBQDyI7vfWsaAnD-33" value="VyOS Vtep 15" style="sketch=0;points=[[0.015,0.015,0],[0.985,0.015,0],[0.985,0.985,0],[0.015,0.985,0],[0.25,0,0],[0.5,0,0],[0.75,0,0],[1,0.25,0],[1,0.5,0],[1,0.75,0],[0.75,1,0],[0.5,1,0],[0.25,1,0],[0,0.75,0],[0,0.5,0],[0,0.25,0]];verticalLabelPosition=bottom;html=1;verticalAlign=top;aspect=fixed;align=center;pointerEvents=1;shape=mxgraph.cisco19.rect;prIcon=l3_switch;fillColor=#d0cee2;strokeColor=#56517e;fontSize=16;labelBackgroundColor=default;" parent="1" vertex="1">
          <mxGeometry x="-615" y="570" width="120" height="120" as="geometry" />
        </mxCell>
        <mxCell id="LlokaoBQDyI7vfWsaAnD-36" value="VyOS Vtep 10" style="sketch=0;points=[[0.015,0.015,0],[0.985,0.015,0],[0.985,0.985,0],[0.015,0.985,0],[0.25,0,0],[0.5,0,0],[0.75,0,0],[1,0.25,0],[1,0.5,0],[1,0.75,0],[0.75,1,0],[0.5,1,0],[0.25,1,0],[0,0.75,0],[0,0.5,0],[0,0.25,0]];verticalLabelPosition=bottom;html=1;verticalAlign=top;aspect=fixed;align=center;pointerEvents=1;shape=mxgraph.cisco19.rect;prIcon=l3_switch;fillColor=#d0cee2;strokeColor=#56517e;fontSize=16;labelBackgroundColor=default;" parent="1" vertex="1">
          <mxGeometry x="-1382" y="570" width="120" height="120" as="geometry" />
        </mxCell>
        <mxCell id="ef0nl-UPp9qs67J5QoKZ-6" value="&lt;font style=&quot;font-size: 30px;&quot;&gt;WAN&lt;/font&gt;" style="ellipse;shape=cloud;whiteSpace=wrap;html=1;" vertex="1" parent="1">
          <mxGeometry x="50" y="-770" width="350" height="190" as="geometry" />
        </mxCell>
        <mxCell id="ef0nl-UPp9qs67J5QoKZ-7" value="" style="endArrow=none;html=1;rounded=0;exitX=0.5;exitY=0;exitDx=0;exitDy=0;exitPerimeter=0;entryX=0.5;entryY=1;entryDx=0;entryDy=0;entryPerimeter=0;strokeWidth=3;strokeColor=#FF0000;" edge="1" parent="1" source="LlokaoBQDyI7vfWsaAnD-43" target="ef0nl-UPp9qs67J5QoKZ-10">
          <mxGeometry width="50" height="50" relative="1" as="geometry">
            <mxPoint x="-250" y="80" as="sourcePoint" />
            <mxPoint x="210.66791044776073" y="-102" as="targetPoint" />
          </mxGeometry>
        </mxCell>
        <mxCell id="ef0nl-UPp9qs67J5QoKZ-8" value="" style="endArrow=none;html=1;rounded=0;entryX=0.55;entryY=0.95;entryDx=0;entryDy=0;entryPerimeter=0;exitX=0.691;exitY=-0.057;exitDx=0;exitDy=0;exitPerimeter=0;" edge="1" parent="1" source="ef0nl-UPp9qs67J5QoKZ-10" target="ef0nl-UPp9qs67J5QoKZ-6">
          <mxGeometry width="50" height="50" relative="1" as="geometry">
            <mxPoint x="220.80813214739555" y="-290" as="sourcePoint" />
            <mxPoint x="-200" y="30" as="targetPoint" />
          </mxGeometry>
        </mxCell>
        <mxCell id="ef0nl-UPp9qs67J5QoKZ-10" value="&lt;font style=&quot;font-size: 25px;&quot;&gt;N100&lt;/font&gt;" style="sketch=0;points=[[0.5,0,0],[1,0.5,0],[0.5,1,0],[0,0.5,0],[0.145,0.145,0],[0.8555,0.145,0],[0.855,0.8555,0],[0.145,0.855,0]];verticalLabelPosition=bottom;html=1;verticalAlign=top;aspect=fixed;align=center;pointerEvents=1;shape=mxgraph.cisco19.rect;prIcon=router_with_firewall;fillColor=#a20025;strokeColor=#6F0000;fontColor=#ffffff;" vertex="1" parent="1">
          <mxGeometry x="390" y="-160" width="130" height="130" as="geometry" />
        </mxCell>
        <mxCell id="ef0nl-UPp9qs67J5QoKZ-11" value="u6 pro" style="html=1;strokeWidth=1;shadow=0;dashed=0;shape=mxgraph.ios7.misc.wifi;fillColor=#1ba1e2;strokeColor=#006EAF;buttonText=;strokeColor2=#222222;fontSize=20;verticalLabelPosition=bottom;verticalAlign=top;align=center;sketch=0;fontColor=#ffffff;" vertex="1" parent="1">
          <mxGeometry x="810" y="-300" width="100" height="100" as="geometry" />
        </mxCell>
        <mxCell id="ef0nl-UPp9qs67J5QoKZ-14" value="" style="endArrow=none;html=1;rounded=0;exitX=1;exitY=0.5;exitDx=0;exitDy=0;exitPerimeter=0;entryX=0;entryY=0.5;entryDx=0;entryDy=0;entryPerimeter=0;" edge="1" parent="1" source="ef0nl-UPp9qs67J5QoKZ-10" target="ef0nl-UPp9qs67J5QoKZ-15">
          <mxGeometry width="50" height="50" relative="1" as="geometry">
            <mxPoint x="540" y="-85" as="sourcePoint" />
            <mxPoint x="820" y="70" as="targetPoint" />
          </mxGeometry>
        </mxCell>
        <mxCell id="ef0nl-UPp9qs67J5QoKZ-15" value="&lt;font style=&quot;font-size: 20px;&quot;&gt;vyos-local&lt;/font&gt;" style="sketch=0;points=[[0.5,0,0],[1,0.5,0],[0.5,1,0],[0,0.5,0],[0.145,0.145,0],[0.8555,0.145,0],[0.855,0.8555,0],[0.145,0.855,0]];verticalLabelPosition=bottom;html=1;verticalAlign=top;aspect=fixed;align=center;pointerEvents=1;shape=mxgraph.cisco19.rect;prIcon=router;fillColor=#FAFAFA;strokeColor=#005073;" vertex="1" parent="1">
          <mxGeometry x="840" y="30" width="140" height="140" as="geometry" />
        </mxCell>
        <mxCell id="ef0nl-UPp9qs67J5QoKZ-16" value="" style="group" vertex="1" connectable="0" parent="1">
          <mxGeometry x="730" y="310" width="190" height="130" as="geometry" />
        </mxCell>
        <mxCell id="ef0nl-UPp9qs67J5QoKZ-17" value="" style="rounded=0;whiteSpace=wrap;html=1;movable=1;resizable=1;rotatable=1;deletable=1;editable=1;locked=0;connectable=1;" vertex="1" parent="ef0nl-UPp9qs67J5QoKZ-16">
          <mxGeometry width="189.99999999999997" height="130" as="geometry" />
        </mxCell>
        <mxCell id="ef0nl-UPp9qs67J5QoKZ-18" value="PVE Cluster" style="text;html=1;align=center;verticalAlign=middle;whiteSpace=wrap;rounded=0;movable=1;resizable=1;rotatable=1;deletable=1;editable=1;locked=0;connectable=1;" vertex="1" parent="ef0nl-UPp9qs67J5QoKZ-16">
          <mxGeometry x="30.000169491525423" y="10.004814814814814" width="9.661016949152541" height="14.444444444444443" as="geometry" />
        </mxCell>
      </root>
    </mxGraphModel>
  </diagram>
</mxfile>
